<svg width="20" height="20" viewBox="0 0 20 20" fill="none" xmlns="http://www.w3.org/2000/svg">
<g clip-path="url(#clip0_1227_600)">
<path d="M10.0456 0C10.0402 0.00535859 10.0295 0.00535859 10.0134 0.00535859C4.59055 0.00535859 0.18042 4.41548 0.18042 9.83838C0.18042 12.0515 0.935982 14.2003 2.3185 15.9311L0.887755 19.2534C0.769866 19.5267 0.898472 19.8429 1.1664 19.9554C1.26286 19.9983 1.37003 20.009 1.47184 19.9929L6.71791 19.0712C7.76819 19.4517 8.87207 19.6446 9.98665 19.6392C15.4096 19.6392 19.8197 15.2291 19.8197 9.80623C19.8304 4.39941 15.4524 0.00535859 10.0456 0ZM9.99201 18.5729C8.9578 18.5729 7.93431 18.3853 6.96441 18.0209C6.87331 17.9834 6.77685 17.9781 6.6804 17.9942L2.26491 18.7658L3.43309 16.049C3.51347 15.8614 3.48132 15.6417 3.34735 15.4863C2.71504 14.7522 2.21133 13.9163 1.85766 13.0107C1.46112 11.9979 1.2575 10.9208 1.2575 9.83302C1.2575 4.99957 5.19071 1.07172 10.0188 1.07172C14.8362 1.061 18.748 4.9567 18.7533 9.77407C18.7533 9.78479 18.7533 9.79551 18.7533 9.80623C18.7533 14.645 14.8201 18.5729 9.99201 18.5729Z" fill="black"/>
<path d="M10.8783 8.33331H6.62154C6.18798 8.33331 5.83325 8.57519 5.83325 8.87081C5.83325 9.16644 6.18798 9.40831 6.62154 9.40831H10.8783C11.3119 9.40831 11.6666 9.16644 11.6666 8.87081C11.6666 8.57519 11.3119 8.33331 10.8783 8.33331Z" fill="black"/>
<path d="M13.3251 10.5403H6.68039C6.38567 10.5403 6.14453 10.7815 6.14453 11.0762C6.14453 11.3709 6.38567 11.6121 6.68039 11.6121H13.3251C13.6198 11.6121 13.8609 11.3709 13.8609 11.0762C13.8609 10.7815 13.6198 10.5403 13.3251 10.5403Z" fill="black"/>
</g>
<defs>
<clipPath id="clip0_1227_600">
<rect width="20" height="20" fill="white"/>
</clipPath>
</defs>
</svg>
