<svg width="24" height="24" viewBox="0 0 24 24" fill="none" xmlns="http://www.w3.org/2000/svg">
<path d="M12.0545 0C12.0481 0 12.0352 0 12.0159 0C5.50846 0 0.216309 5.29214 0.216309 11.7996C0.216309 14.4553 1.12298 17.0339 2.782 19.1109L1.06511 23.1041C0.923643 23.432 1.07797 23.8114 1.39949 23.9465C1.51523 23.9979 1.64384 24.0108 1.76601 23.9915L8.0613 22.8855C9.32164 23.342 10.6463 23.5735 11.9838 23.5671C18.4913 23.5671 23.7834 18.2749 23.7834 11.7675C23.7963 5.27928 18.5427 0.00643031 12.0545 0ZM8.01628 9.42683H11.4887C11.8423 9.42683 12.1317 9.7162 12.1317 10.0699C12.1317 10.4235 11.8423 10.7129 11.4887 10.7129H8.01628C7.66262 10.7129 7.37325 10.4235 7.37325 10.0699C7.37325 9.7162 7.66262 9.42683 8.01628 9.42683ZM15.9899 13.928H8.01628C7.66262 13.928 7.37325 13.6387 7.37325 13.285C7.37325 12.9314 7.66262 12.642 8.01628 12.642H15.9899C16.3435 12.642 16.6329 12.9314 16.6329 13.285C16.6329 13.6387 16.3435 13.928 15.9899 13.928Z" fill="#441EDD"/>
</svg>
